  0
SECTION
  2
HEADER
  9
$ACADVER
  1
AC1014
  9
$HANDSEED
  5
FFFF
  9
$INSUNITS
 70
     4
  9
$MEASUREMENT
 70
     1
  0
ENDSEC
  0
SECTION
  2
TABLES
  0
TABLE
  2
VPORT
  5
8
330
0
100
AcDbSymbolTable
 70
     4
  0
VPORT
  5
2E
330
8
100
AcDbSymbolTableRecord
100
AcDbViewportTableRecord
  2
*ACTIVE
 70
     0
 10
0.0
 20
0.0
 11
1.0
 21
1.0
 12
210.0
 22
148.5
 13
0.0
 23
0.0
 14
10.0
 24
10.0
 15
10.0
 25
10.0
 16
0.0
 26
0.0
 36
1.0
 17
0.0
 27
0.0
 37
0.0
 40
341.0
 41
1.24
 42
50.0
 43
0.0
 44
0.0
 50
0.0
 51
0.0
 71
     0
 72
   100
 73
     1
 74
     3
 75
     0
 76
     0
 77
     0
 78
     0
  0
ENDTAB
  0
TABLE
  2
LTYPE
  5
5
330
0
100
AcDbSymbolTable
 70
     1
  0
LTYPE
  5
14
330
5
100
AcDbSymbolTableRecord
100
AcDbLinetypeTableRecord
  2
BYBLOCK
 70
     0
  3

 72
    65
 73
     0
 40
0.0
  0
LTYPE
  5
15
330
5
100
AcDbSymbolTableRecord
100
AcDbLinetypeTableRecord
  2
BYLAYER
 70
     0
  3

 72
    65
 73
     0
 40
0.0
  0
LTYPE
  5
16
330
5
100
AcDbSymbolTableRecord
100
AcDbLinetypeTableRecord
  2
CONTINUOUS
 70
     0
  3
Solid line
 72
    65
 73
     0
 40
0.0
  0
ENDTAB
  0
TABLE
  2
LAYER
  5
2
100
AcDbSymbolTable
 70
2
  0
LAYER
  5
50
100
AcDbSymbolTableRecord
100
AcDbLayerTableRecord
  2
0
 70
0
  6
CONTINUOUS
  0
LAYER
  5
51
100
AcDbSymbolTableRecord
100
AcDbLayerTableRecord
  2
Layer_1
 70
0
  6
CONTINUOUS
  0
ENDTAB
  0
TABLE
  2
STYLE
  5
3
330
0
100
AcDbSymbolTable
 70
     1
  0
STYLE
  5
11
330
3
100
AcDbSymbolTableRecord
100
AcDbTextStyleTableRecord
  2
STANDARD
 70
     0
 40
0.0
 41
1.0
 50
0.0
 71
     0
 42
2.5
  3
txt
  4

  0
ENDTAB
  0
TABLE
  2
VIEW
  5
6
330
0
100
AcDbSymbolTable
 70
     0
  0
ENDTAB
  0
TABLE
  2
UCS
  5
7
330
0
100
AcDbSymbolTable
 70
     0
  0
ENDTAB
  0
TABLE
  2
APPID
  5
9
330
0
100
AcDbSymbolTable
 70
     2
  0
APPID
  5
12
330
9
100
AcDbSymbolTableRecord
100
AcDbRegAppTableRecord
  2
ACAD
 70
     0
  0
ENDTAB
  0
TABLE
  2
DIMSTYLE
  5
A
330
0
100
AcDbSymbolTable
 70
     1
  0
DIMSTYLE
105
27
330
A
100
AcDbSymbolTableRecord
100
AcDbDimStyleTableRecord
  2
ISO-25
 70
     0
  3

  4

  5

  6

  7

 40
1.0
 41
2.5
 42
0.625
 43
3.75
 44
1.25
 45
0.0
 46
0.0
 47
0.0
 48
0.0
140
2.5
141
2.5
142
0.0
143
0.03937007874016
144
1.0
145
0.0
146
1.0
147
0.625
 71
     0
 72
     0
 73
     0
 74
     0
 75
     0
 76
     0
 77
     1
 78
     8
170
     0
171
     3
172
     1
173
     0
174
     0
175
     0
176
     0
177
     0
178
     0
270
     2
271
     2
272
     2
273
     2
274
     3
340
11
275
     0
280
     0
281
     0
282
     0
283
     0
284
     8
285
     0
286
     0
287
     3
288
     0
  0
ENDTAB
  0
TABLE
  2
BLOCK_RECORD
  5
1
330
0
100
AcDbSymbolTable
 70
     1
  0
BLOCK_RECORD
  5
1F
330
1
100
AcDbSymbolTableRecord
100
AcDbBlockTableRecord
  2
*MODEL_SPACE
  0
BLOCK_RECORD
  5
1B
330
1
100
AcDbSymbolTableRecord
100
AcDbBlockTableRecord
  2
*PAPER_SPACE
  0
ENDTAB
  0
ENDSEC
  0
SECTION
  2
BLOCKS
  0
BLOCK
  5
20
330
1F
100
AcDbEntity
  8
0
100
AcDbBlockBegin
  2
*MODEL_SPACE
 70
     0
 10
0.0
 20
0.0
 30
0.0
  3
*MODEL_SPACE
  1

  0
ENDBLK
  5
21
330
1F
100
AcDbEntity
  8
0
100
AcDbBlockEnd
  0
BLOCK
  5
1C
330
1B
100
AcDbEntity
 67
     1
  8
0
100
AcDbBlockBegin
  2
*PAPER_SPACE
  1

  0
ENDBLK
  5
1D
330
1B
100
AcDbEntity
 67
     1
  8
0
100
AcDbBlockEnd
  0
ENDSEC
  0
SECTION
  2
ENTITIES
  0
SPLINE
  5
100
100
AcDbEntity
  8
Layer_1
 62
1
100
AcDbSpline
 70
8
 71
3
 72
8
 73
4
 74
0
 40
0
 40
0
 40
0
 40
0
 40
1
 40
1
 40
1
 40
1
 10
573.083789
 20
448.062874
 30
0.0
 10
571.951725
 20
448.062874
 30
0.0
 10
571.033797
 20
448.980096
 30
0.0
 10
571.033797
 20
450.112865
 30
0.0
  0
SPLINE
  5
101
100
AcDbEntity
  8
Layer_1
 62
1
100
AcDbSpline
 70
8
 71
3
 72
8
 73
4
 74
0
 40
0
 40
0
 40
0
 40
0
 40
1
 40
1
 40
1
 40
1
 10
571.033797
 20
450.112865
 30
0.0
 10
571.033797
 20
451.244929
 30
0.0
 10
571.951725
 20
452.162504
 30
0.0
 10
573.083789
 20
452.162504
 30
0.0
  0
SPLINE
  5
102
100
AcDbEntity
  8
Layer_1
 62
1
100
AcDbSpline
 70
8
 71
3
 72
8
 73
4
 74
0
 40
0
 40
0
 40
0
 40
0
 40
1
 40
1
 40
1
 40
1
 10
573.083789
 20
452.162504
 30
0.0
 10
574.216558
 20
452.162504
 30
0.0
 10
575.133428
 20
451.244929
 30
0.0
 10
575.133428
 20
450.112865
 30
0.0
  0
SPLINE
  5
103
100
AcDbEntity
  8
Layer_1
 62
1
100
AcDbSpline
 70
8
 71
3
 72
8
 73
4
 74
0
 40
0
 40
0
 40
0
 40
0
 40
1
 40
1
 40
1
 40
1
 10
575.133428
 20
450.112865
 30
0.0
 10
575.133428
 20
448.980096
 30
0.0
 10
574.216206
 20
448.062874
 30
0.0
 10
573.083789
 20
448.062874
 30
0.0
  0
SPLINE
  5
104
100
AcDbEntity
  8
Layer_1
 62
1
100
AcDbSpline
 70
8
 71
3
 72
8
 73
4
 74
0
 40
0
 40
0
 40
0
 40
0
 40
1
 40
1
 40
1
 40
1
 10
573.083789
 20
348.062440
 30
0.0
 10
571.951725
 20
348.062440
 30
0.0
 10
571.033797
 20
348.980368
 30
0.0
 10
571.033797
 20
350.112784
 30
0.0
  0
SPLINE
  5
105
100
AcDbEntity
  8
Layer_1
 62
1
100
AcDbSpline
 70
8
 71
3
 72
8
 73
4
 74
0
 40
0
 40
0
 40
0
 40
0
 40
1
 40
1
 40
1
 40
1
 10
571.033797
 20
350.112784
 30
0.0
 10
571.033797
 20
351.245201
 30
0.0
 10
571.951725
 20
352.162776
 30
0.0
 10
573.083789
 20
352.162776
 30
0.0
  0
SPLINE
  5
106
100
AcDbEntity
  8
Layer_1
 62
1
100
AcDbSpline
 70
8
 71
3
 72
8
 73
4
 74
0
 40
0
 40
0
 40
0
 40
0
 40
1
 40
1
 40
1
 40
1
 10
573.083789
 20
352.162776
 30
0.0
 10
574.216206
 20
352.162776
 30
0.0
 10
575.133781
 20
351.245201
 30
0.0
 10
575.133781
 20
350.112784
 30
0.0
  0
SPLINE
  5
107
100
AcDbEntity
  8
Layer_1
 62
1
100
AcDbSpline
 70
8
 71
3
 72
8
 73
4
 74
0
 40
0
 40
0
 40
0
 40
0
 40
1
 40
1
 40
1
 40
1
 10
575.133781
 20
350.112784
 30
0.0
 10
575.133781
 20
348.980368
 30
0.0
 10
574.216206
 20
348.062440
 30
0.0
 10
573.083789
 20
348.062440
 30
0.0
  0
LWPOLYLINE
  5
108
100
AcDbEntity
  8
Layer_1
 62
1
100
AcDbPolyline
 90
1
 70
1
 10
573.083789
 20
448.062874
 30
0.0
  0
SPLINE
  5
109
100
AcDbEntity
  8
Layer_1
 62
1
100
AcDbSpline
 70
8
 71
3
 72
8
 73
4
 74
0
 40
0
 40
0
 40
0
 40
0
 40
1
 40
1
 40
1
 40
1
 10
560.583946
 20
360.562997
 30
0.0
 10
559.451530
 20
360.562997
 30
0.0
 10
558.534308
 20
361.480219
 30
0.0
 10
558.534308
 20
362.612636
 30
0.0
  0
SPLINE
  5
10a
100
AcDbEntity
  8
Layer_1
 62
1
100
AcDbSpline
 70
8
 71
3
 72
8
 73
4
 74
0
 40
0
 40
0
 40
0
 40
0
 40
1
 40
1
 40
1
 40
1
 10
558.534308
 20
362.612636
 30
0.0
 10
558.534308
 20
363.744700
 30
0.0
 10
559.451530
 20
364.662627
 30
0.0
 10
560.583946
 20
364.662627
 30
0.0
  0
SPLINE
  5
10b
100
AcDbEntity
  8
Layer_1
 62
1
100
AcDbSpline
 70
8
 71
3
 72
8
 73
4
 74
0
 40
0
 40
0
 40
0
 40
0
 40
1
 40
1
 40
1
 40
1
 10
560.583946
 20
364.662627
 30
0.0
 10
561.716363
 20
364.662627
 30
0.0
 10
562.633232
 20
363.744700
 30
0.0
 10
562.633232
 20
362.612636
 30
0.0
  0
SPLINE
  5
10c
100
AcDbEntity
  8
Layer_1
 62
1
100
AcDbSpline
 70
8
 71
3
 72
8
 73
4
 74
0
 40
0
 40
0
 40
0
 40
0
 40
1
 40
1
 40
1
 40
1
 10
562.633232
 20
362.612636
 30
0.0
 10
562.633232
 20
361.480219
 30
0.0
 10
561.716363
 20
360.562997
 30
0.0
 10
560.583946
 20
360.562997
 30
0.0
  0
LWPOLYLINE
  5
10d
100
AcDbEntity
  8
Layer_1
 62
1
100
AcDbPolyline
 90
1
 70
1
 10
573.083789
 20
348.062440
 30
0.0
  0
SPLINE
  5
10e
100
AcDbEntity
  8
Layer_1
 62
1
100
AcDbSpline
 70
8
 71
3
 72
8
 73
4
 74
0
 40
0
 40
0
 40
0
 40
0
 40
1
 40
1
 40
1
 40
1
 10
560.583946
 20
435.562687
 30
0.0
 10
559.451530
 20
435.562687
 30
0.0
 10
558.534308
 20
436.480615
 30
0.0
 10
558.534308
 20
437.612679
 30
0.0
  0
SPLINE
  5
10f
100
AcDbEntity
  8
Layer_1
 62
1
100
AcDbSpline
 70
8
 71
3
 72
8
 73
4
 74
0
 40
0
 40
0
 40
0
 40
0
 40
1
 40
1
 40
1
 40
1
 10
558.534308
 20
437.612679
 30
0.0
 10
558.534308
 20
438.745095
 30
0.0
 10
559.451530
 20
439.662318
 30
0.0
 10
560.583946
 20
439.662318
 30
0.0
  0
SPLINE
  5
110
100
AcDbEntity
  8
Layer_1
 62
1
100
AcDbSpline
 70
8
 71
3
 72
8
 73
4
 74
0
 40
0
 40
0
 40
0
 40
0
 40
1
 40
1
 40
1
 40
1
 10
560.583946
 20
439.662318
 30
0.0
 10
561.716363
 20
439.662318
 30
0.0
 10
562.633232
 20
438.745095
 30
0.0
 10
562.633232
 20
437.612679
 30
0.0
  0
SPLINE
  5
111
100
AcDbEntity
  8
Layer_1
 62
1
100
AcDbSpline
 70
8
 71
3
 72
8
 73
4
 74
0
 40
0
 40
0
 40
0
 40
0
 40
1
 40
1
 40
1
 40
1
 10
562.633232
 20
437.612679
 30
0.0
 10
562.633232
 20
436.480615
 30
0.0
 10
561.716363
 20
435.562687
 30
0.0
 10
560.583946
 20
435.562687
 30
0.0
  0
LWPOLYLINE
  5
112
100
AcDbEntity
  8
Layer_1
 62
1
100
AcDbPolyline
 90
1
 70
1
 10
560.583946
 20
360.562997
 30
0.0
  0
SPLINE
  5
113
100
AcDbEntity
  8
Layer_1
 62
1
100
AcDbSpline
 70
8
 71
3
 72
8
 73
4
 74
0
 40
0
 40
0
 40
0
 40
0
 40
1
 40
1
 40
1
 40
1
 10
485.583833
 20
360.562997
 30
0.0
 10
484.451769
 20
360.562997
 30
0.0
 10
483.534194
 20
361.480219
 30
0.0
 10
483.534194
 20
362.612636
 30
0.0
  0
SPLINE
  5
114
100
AcDbEntity
  8
Layer_1
 62
1
100
AcDbSpline
 70
8
 71
3
 72
8
 73
4
 74
0
 40
0
 40
0
 40
0
 40
0
 40
1
 40
1
 40
1
 40
1
 10
483.534194
 20
362.612636
 30
0.0
 10
483.534194
 20
363.744700
 30
0.0
 10
484.451769
 20
364.662627
 30
0.0
 10
485.583833
 20
364.662627
 30
0.0
  0
SPLINE
  5
115
100
AcDbEntity
  8
Layer_1
 62
1
100
AcDbSpline
 70
8
 71
3
 72
8
 73
4
 74
0
 40
0
 40
0
 40
0
 40
0
 40
1
 40
1
 40
1
 40
1
 10
485.583833
 20
364.662627
 30
0.0
 10
486.715897
 20
364.662627
 30
0.0
 10
487.633824
 20
363.744700
 30
0.0
 10
487.633824
 20
362.612636
 30
0.0
  0
SPLINE
  5
116
100
AcDbEntity
  8
Layer_1
 62
1
100
AcDbSpline
 70
8
 71
3
 72
8
 73
4
 74
0
 40
0
 40
0
 40
0
 40
0
 40
1
 40
1
 40
1
 40
1
 10
487.633824
 20
362.612636
 30
0.0
 10
487.633824
 20
361.480219
 30
0.0
 10
486.715897
 20
360.562997
 30
0.0
 10
485.583833
 20
360.562997
 30
0.0
  0
LWPOLYLINE
  5
117
100
AcDbEntity
  8
Layer_1
 62
1
100
AcDbPolyline
 90
1
 70
1
 10
560.583946
 20
435.562687
 30
0.0
  0
SPLINE
  5
118
100
AcDbEntity
  8
Layer_1
 62
1
100
AcDbSpline
 70
8
 71
3
 72
8
 73
4
 74
0
 40
0
 40
0
 40
0
 40
0
 40
1
 40
1
 40
1
 40
1
 10
485.583833
 20
435.562687
 30
0.0
 10
484.451769
 20
435.562687
 30
0.0
 10
483.534194
 20
436.480615
 30
0.0
 10
483.534194
 20
437.612679
 30
0.0
  0
SPLINE
  5
119
100
AcDbEntity
  8
Layer_1
 62
1
100
AcDbSpline
 70
8
 71
3
 72
8
 73
4
 74
0
 40
0
 40
0
 40
0
 40
0
 40
1
 40
1
 40
1
 40
1
 10
483.534194
 20
437.612679
 30
0.0
 10
483.534194
 20
438.745095
 30
0.0
 10
484.451769
 20
439.662318
 30
0.0
 10
485.583833
 20
439.662318
 30
0.0
  0
SPLINE
  5
11a
100
AcDbEntity
  8
Layer_1
 62
1
100
AcDbSpline
 70
8
 71
3
 72
8
 73
4
 74
0
 40
0
 40
0
 40
0
 40
0
 40
1
 40
1
 40
1
 40
1
 10
485.583833
 20
439.662318
 30
0.0
 10
486.715897
 20
439.662318
 30
0.0
 10
487.633824
 20
438.745095
 30
0.0
 10
487.633824
 20
437.612679
 30
0.0
  0
SPLINE
  5
11b
100
AcDbEntity
  8
Layer_1
 62
1
100
AcDbSpline
 70
8
 71
3
 72
8
 73
4
 74
0
 40
0
 40
0
 40
0
 40
0
 40
1
 40
1
 40
1
 40
1
 10
487.633824
 20
437.612679
 30
0.0
 10
487.633824
 20
436.480615
 30
0.0
 10
486.715897
 20
435.562687
 30
0.0
 10
485.583833
 20
435.562687
 30
0.0
  0
LWPOLYLINE
  5
11c
100
AcDbEntity
  8
Layer_1
 62
1
100
AcDbPolyline
 90
1
 70
1
 10
485.583833
 20
360.562997
 30
0.0
  0
SPLINE
  5
11d
100
AcDbEntity
  8
Layer_1
 62
1
100
AcDbSpline
 70
8
 71
3
 72
8
 73
4
 74
0
 40
0
 40
0
 40
0
 40
0
 40
1
 40
1
 40
1
 40
1
 10
548.084130
 20
373.062469
 30
0.0
 10
546.951714
 20
373.062469
 30
0.0
 10
546.034139
 20
373.980397
 30
0.0
 10
546.034139
 20
375.112461
 30
0.0
  0
SPLINE
  5
11e
100
AcDbEntity
  8
Layer_1
 62
1
100
AcDbSpline
 70
8
 71
3
 72
8
 73
4
 74
0
 40
0
 40
0
 40
0
 40
0
 40
1
 40
1
 40
1
 40
1
 10
546.034139
 20
375.112461
 30
0.0
 10
546.034139
 20
376.244877
 30
0.0
 10
546.951714
 20
377.162099
 30
0.0
 10
548.084130
 20
377.162099
 30
0.0
  0
SPLINE
  5
11f
100
AcDbEntity
  8
Layer_1
 62
1
100
AcDbSpline
 70
8
 71
3
 72
8
 73
4
 74
0
 40
0
 40
0
 40
0
 40
0
 40
1
 40
1
 40
1
 40
1
 10
548.084130
 20
377.162099
 30
0.0
 10
549.216194
 20
377.162099
 30
0.0
 10
550.133769
 20
376.244877
 30
0.0
 10
550.133769
 20
375.112461
 30
0.0
  0
SPLINE
  5
120
100
AcDbEntity
  8
Layer_1
 62
1
100
AcDbSpline
 70
8
 71
3
 72
8
 73
4
 74
0
 40
0
 40
0
 40
0
 40
0
 40
1
 40
1
 40
1
 40
1
 10
550.133769
 20
375.112461
 30
0.0
 10
550.133769
 20
373.980397
 30
0.0
 10
549.216194
 20
373.062469
 30
0.0
 10
548.084130
 20
373.062469
 30
0.0
  0
LWPOLYLINE
  5
121
100
AcDbEntity
  8
Layer_1
 62
1
100
AcDbPolyline
 90
1
 70
1
 10
485.583833
 20
435.562687
 30
0.0
  0
SPLINE
  5
122
100
AcDbEntity
  8
Layer_1
 62
1
100
AcDbSpline
 70
8
 71
3
 72
8
 73
4
 74
0
 40
0
 40
0
 40
0
 40
0
 40
1
 40
1
 40
1
 40
1
 10
547.857435
 20
423.062501
 30
0.0
 10
546.725371
 20
423.062501
 30
0.0
 10
545.807444
 20
423.980429
 30
0.0
 10
545.807444
 20
425.112492
 30
0.0
  0
SPLINE
  5
123
100
AcDbEntity
  8
Layer_1
 62
1
100
AcDbSpline
 70
8
 71
3
 72
8
 73
4
 74
0
 40
0
 40
0
 40
0
 40
0
 40
1
 40
1
 40
1
 40
1
 10
545.807444
 20
425.112492
 30
0.0
 10
545.807444
 20
426.244909
 30
0.0
 10
546.725371
 20
427.162131
 30
0.0
 10
547.857435
 20
427.162131
 30
0.0
  0
SPLINE
  5
124
100
AcDbEntity
  8
Layer_1
 62
1
100
AcDbSpline
 70
8
 71
3
 72
8
 73
4
 74
0
 40
0
 40
0
 40
0
 40
0
 40
1
 40
1
 40
1
 40
1
 10
547.857435
 20
427.162131
 30
0.0
 10
548.989499
 20
427.162131
 30
0.0
 10
549.907074
 20
426.244909
 30
0.0
 10
549.907074
 20
425.112492
 30
0.0
  0
SPLINE
  5
125
100
AcDbEntity
  8
Layer_1
 62
1
100
AcDbSpline
 70
8
 71
3
 72
8
 73
4
 74
0
 40
0
 40
0
 40
0
 40
0
 40
1
 40
1
 40
1
 40
1
 10
549.907074
 20
425.112492
 30
0.0
 10
549.907074
 20
423.980429
 30
0.0
 10
548.989499
 20
423.062501
 30
0.0
 10
547.857435
 20
423.062501
 30
0.0
  0
LWPOLYLINE
  5
126
100
AcDbEntity
  8
Layer_1
 62
1
100
AcDbPolyline
 90
1
 70
1
 10
548.084130
 20
373.062469
 30
0.0
  0
SPLINE
  5
127
100
AcDbEntity
  8
Layer_1
 62
1
100
AcDbSpline
 70
8
 71
3
 72
8
 73
4
 74
0
 40
0
 40
0
 40
0
 40
0
 40
1
 40
1
 40
1
 40
1
 10
498.084019
 20
373.062469
 30
0.0
 10
496.951603
 20
373.062469
 30
0.0
 10
496.034380
 20
373.980397
 30
0.0
 10
496.034380
 20
375.112461
 30
0.0
  0
SPLINE
  5
128
100
AcDbEntity
  8
Layer_1
 62
1
100
AcDbSpline
 70
8
 71
3
 72
8
 73
4
 74
0
 40
0
 40
0
 40
0
 40
0
 40
1
 40
1
 40
1
 40
1
 10
496.034380
 20
375.112461
 30
0.0
 10
496.034380
 20
376.244877
 30
0.0
 10
496.951603
 20
377.162099
 30
0.0
 10
498.084019
 20
377.162099
 30
0.0
  0
SPLINE
  5
129
100
AcDbEntity
  8
Layer_1
 62
1
100
AcDbSpline
 70
8
 71
3
 72
8
 73
4
 74
0
 40
0
 40
0
 40
0
 40
0
 40
1
 40
1
 40
1
 40
1
 10
498.084019
 20
377.162099
 30
0.0
 10
499.216083
 20
377.162099
 30
0.0
 10
500.134011
 20
376.244877
 30
0.0
 10
500.134011
 20
375.112461
 30
0.0
  0
SPLINE
  5
12a
100
AcDbEntity
  8
Layer_1
 62
1
100
AcDbSpline
 70
8
 71
3
 72
8
 73
4
 74
0
 40
0
 40
0
 40
0
 40
0
 40
1
 40
1
 40
1
 40
1
 10
500.134011
 20
375.112461
 30
0.0
 10
500.134011
 20
373.980397
 30
0.0
 10
499.216083
 20
373.062469
 30
0.0
 10
498.084019
 20
373.062469
 30
0.0
  0
LWPOLYLINE
  5
12b
100
AcDbEntity
  8
Layer_1
 62
1
100
AcDbPolyline
 90
1
 70
1
 10
547.857435
 20
423.062501
 30
0.0
  0
SPLINE
  5
12c
100
AcDbEntity
  8
Layer_1
 62
1
100
AcDbSpline
 70
8
 71
3
 72
8
 73
4
 74
0
 40
0
 40
0
 40
0
 40
0
 40
1
 40
1
 40
1
 40
1
 10
497.857377
 20
423.062501
 30
0.0
 10
496.725313
 20
423.062501
 30
0.0
 10
495.807386
 20
423.980429
 30
0.0
 10
495.807386
 20
425.112492
 30
0.0
  0
SPLINE
  5
12d
100
AcDbEntity
  8
Layer_1
 62
1
100
AcDbSpline
 70
8
 71
3
 72
8
 73
4
 74
0
 40
0
 40
0
 40
0
 40
0
 40
1
 40
1
 40
1
 40
1
 10
495.807386
 20
425.112492
 30
0.0
 10
495.807386
 20
426.244909
 30
0.0
 10
496.725313
 20
427.162131
 30
0.0
 10
497.857377
 20
427.162131
 30
0.0
  0
SPLINE
  5
12e
100
AcDbEntity
  8
Layer_1
 62
1
100
AcDbSpline
 70
8
 71
3
 72
8
 73
4
 74
0
 40
0
 40
0
 40
0
 40
0
 40
1
 40
1
 40
1
 40
1
 10
497.857377
 20
427.162131
 30
0.0
 10
498.989441
 20
427.162131
 30
0.0
 10
499.907016
 20
426.244909
 30
0.0
 10
499.907016
 20
425.112492
 30
0.0
  0
SPLINE
  5
12f
100
AcDbEntity
  8
Layer_1
 62
1
100
AcDbSpline
 70
8
 71
3
 72
8
 73
4
 74
0
 40
0
 40
0
 40
0
 40
0
 40
1
 40
1
 40
1
 40
1
 10
499.907016
 20
425.112492
 30
0.0
 10
499.907016
 20
423.980429
 30
0.0
 10
498.989441
 20
423.062501
 30
0.0
 10
497.857377
 20
423.062501
 30
0.0
  0
LWPOLYLINE
  5
130
100
AcDbEntity
  8
Layer_1
 62
1
100
AcDbPolyline
 90
1
 70
1
 10
498.084019
 20
373.062469
 30
0.0
  0
SPLINE
  5
131
100
AcDbEntity
  8
Layer_1
 62
1
100
AcDbSpline
 70
8
 71
3
 72
8
 73
4
 74
0
 40
0
 40
0
 40
0
 40
0
 40
1
 40
1
 40
1
 40
1
 10
452.317294
 20
337.613092
 30
0.0
 10
449.979436
 20
337.613092
 30
0.0
 10
448.083961
 20
339.192478
 30
0.0
 10
448.083961
 20
341.141222
 30
0.0
  0
LWPOLYLINE
  5
132
100
AcDbEntity
  8
Layer_1
 62
1
100
AcDbPolyline
 90
1
 70
1
 10
497.857377
 20
423.062501
 30
0.0
  0
SPLINE
  5
133
100
AcDbEntity
  8
Layer_1
 62
1
100
AcDbSpline
 70
8
 71
3
 72
8
 73
4
 74
0
 40
0
 40
0
 40
0
 40
0
 40
1
 40
1
 40
1
 40
1
 10
448.083961
 20
459.084707
 30
0.0
 10
448.083961
 20
461.033098
 30
0.0
 10
449.979436
 20
462.612837
 30
0.0
 10
452.317294
 20
462.612837
 30
0.0
  0
LWPOLYLINE
  5
134
100
AcDbEntity
  8
Layer_1
 62
1
100
AcDbPolyline
 90
2
 70
0
 10
448.083961
 20
341.141222
 30
0.0
 10
448.083961
 20
459.084707
 30
0.0
  0
SPLINE
  5
135
100
AcDbEntity
  8
Layer_1
 62
1
100
AcDbSpline
 70
8
 71
3
 72
8
 73
4
 74
0
 40
0
 40
0
 40
0
 40
0
 40
1
 40
1
 40
1
 40
1
 10
593.850675
 20
462.612132
 30
0.0
 10
596.188533
 20
462.612132
 30
0.0
 10
598.084008
 20
461.033098
 30
0.0
 10
598.084008
 20
459.084707
 30
0.0
  0
LWPOLYLINE
  5
136
100
AcDbEntity
  8
Layer_1
 62
1
100
AcDbPolyline
 90
2
 70
0
 10
452.317294
 20
462.612837
 30
0.0
 10
593.850675
 20
462.612132
 30
0.0
  0
SPLINE
  5
137
100
AcDbEntity
  8
Layer_1
 62
1
100
AcDbSpline
 70
8
 71
3
 72
8
 73
4
 74
0
 40
0
 40
0
 40
0
 40
0
 40
1
 40
1
 40
1
 40
1
 10
598.083656
 20
341.140517
 30
0.0
 10
598.083656
 20
339.192478
 30
0.0
 10
596.188533
 20
337.612739
 30
0.0
 10
593.850322
 20
337.612739
 30
0.0
  0
LWPOLYLINE
  5
138
100
AcDbEntity
  8
Layer_1
 62
1
100
AcDbPolyline
 90
2
 70
0
 10
598.084008
 20
459.084707
 30
0.0
 10
598.083656
 20
341.140517
 30
0.0
  0
SPLINE
  5
139
100
AcDbEntity
  8
Layer_1
 62
1
100
AcDbSpline
 70
8
 71
3
 72
8
 73
4
 74
0
 40
0
 40
0
 40
0
 40
0
 40
1
 40
1
 40
1
 40
1
 10
473.083990
 20
448.062186
 30
0.0
 10
471.952279
 20
448.062186
 30
0.0
 10
471.034704
 20
448.979408
 30
0.0
 10
471.034704
 20
450.112177
 30
0.0
  0
SPLINE
  5
13a
100
AcDbEntity
  8
Layer_1
 62
1
100
AcDbSpline
 70
8
 71
3
 72
8
 73
4
 74
0
 40
0
 40
0
 40
0
 40
0
 40
1
 40
1
 40
1
 40
1
 10
471.034704
 20
450.112177
 30
0.0
 10
471.034704
 20
451.244241
 30
0.0
 10
471.952279
 20
452.161816
 30
0.0
 10
473.083990
 20
452.161816
 30
0.0
  0
SPLINE
  5
13b
100
AcDbEntity
  8
Layer_1
 62
1
100
AcDbSpline
 70
8
 71
3
 72
8
 73
4
 74
0
 40
0
 40
0
 40
0
 40
0
 40
1
 40
1
 40
1
 40
1
 10
473.083990
 20
452.161816
 30
0.0
 10
474.216407
 20
452.161816
 30
0.0
 10
475.134335
 20
451.244241
 30
0.0
 10
475.134335
 20
450.112177
 30
0.0
  0
SPLINE
  5
13c
100
AcDbEntity
  8
Layer_1
 62
1
100
AcDbSpline
 70
8
 71
3
 72
8
 73
4
 74
0
 40
0
 40
0
 40
0
 40
0
 40
1
 40
1
 40
1
 40
1
 10
475.134335
 20
450.112177
 30
0.0
 10
475.134335
 20
448.979408
 30
0.0
 10
474.216407
 20
448.062186
 30
0.0
 10
473.083990
 20
448.062186
 30
0.0
  0
LWPOLYLINE
  5
13d
100
AcDbEntity
  8
Layer_1
 62
1
100
AcDbPolyline
 90
2
 70
0
 10
593.850322
 20
337.612739
 30
0.0
 10
452.317294
 20
337.613092
 30
0.0
  0
SPLINE
  5
13e
100
AcDbEntity
  8
Layer_1
 62
1
100
AcDbSpline
 70
8
 71
3
 72
8
 73
4
 74
0
 40
0
 40
0
 40
0
 40
0
 40
1
 40
1
 40
1
 40
1
 10
473.083990
 20
348.061752
 30
0.0
 10
471.951926
 20
348.061752
 30
0.0
 10
471.034351
 20
348.980033
 30
0.0
 10
471.034351
 20
350.112096
 30
0.0
  0
SPLINE
  5
13f
100
AcDbEntity
  8
Layer_1
 62
1
100
AcDbSpline
 70
8
 71
3
 72
8
 73
4
 74
0
 40
0
 40
0
 40
0
 40
0
 40
1
 40
1
 40
1
 40
1
 10
471.034351
 20
350.112096
 30
0.0
 10
471.034351
 20
351.244866
 30
0.0
 10
471.951926
 20
352.162088
 30
0.0
 10
473.083990
 20
352.162088
 30
0.0
  0
SPLINE
  5
140
100
AcDbEntity
  8
Layer_1
 62
1
100
AcDbSpline
 70
8
 71
3
 72
8
 73
4
 74
0
 40
0
 40
0
 40
0
 40
0
 40
1
 40
1
 40
1
 40
1
 10
473.083990
 20
352.162088
 30
0.0
 10
474.216407
 20
352.162088
 30
0.0
 10
475.134335
 20
351.244866
 30
0.0
 10
475.134335
 20
350.112096
 30
0.0
  0
SPLINE
  5
141
100
AcDbEntity
  8
Layer_1
 62
1
100
AcDbSpline
 70
8
 71
3
 72
8
 73
4
 74
0
 40
0
 40
0
 40
0
 40
0
 40
1
 40
1
 40
1
 40
1
 10
475.134335
 20
350.112096
 30
0.0
 10
475.134335
 20
348.980033
 30
0.0
 10
474.216407
 20
348.061752
 30
0.0
 10
473.083990
 20
348.061752
 30
0.0
  0
LWPOLYLINE
  5
142
100
AcDbEntity
  8
Layer_1
 62
1
100
AcDbPolyline
 90
1
 70
1
 10
473.083990
 20
448.062186
 30
0.0
  0
SPLINE
  5
143
100
AcDbEntity
  8
Layer_1
 62
1
100
AcDbSpline
 70
8
 71
3
 72
8
 73
4
 74
0
 40
0
 40
0
 40
0
 40
0
 40
1
 40
1
 40
1
 40
1
 10
726.866632
 20
448.062874
 30
0.0
 10
725.734568
 20
448.062874
 30
0.0
 10
724.816640
 20
448.980096
 30
0.0
 10
724.816640
 20
450.112865
 30
0.0
  0
SPLINE
  5
144
100
AcDbEntity
  8
Layer_1
 62
1
100
AcDbSpline
 70
8
 71
3
 72
8
 73
4
 74
0
 40
0
 40
0
 40
0
 40
0
 40
1
 40
1
 40
1
 40
1
 10
724.816640
 20
450.112865
 30
0.0
 10
724.816640
 20
451.244929
 30
0.0
 10
725.734568
 20
452.162504
 30
0.0
 10
726.866632
 20
452.162504
 30
0.0
  0
SPLINE
  5
145
100
AcDbEntity
  8
Layer_1
 62
1
100
AcDbSpline
 70
8
 71
3
 72
8
 73
4
 74
0
 40
0
 40
0
 40
0
 40
0
 40
1
 40
1
 40
1
 40
1
 10
726.866632
 20
452.162504
 30
0.0
 10
727.999401
 20
452.162504
 30
0.0
 10
728.916624
 20
451.244929
 30
0.0
 10
728.916624
 20
450.112865
 30
0.0
  0
SPLINE
  5
146
100
AcDbEntity
  8
Layer_1
 62
1
100
AcDbSpline
 70
8
 71
3
 72
8
 73
4
 74
0
 40
0
 40
0
 40
0
 40
0
 40
1
 40
1
 40
1
 40
1
 10
728.916624
 20
450.112865
 30
0.0
 10
728.916624
 20
448.980096
 30
0.0
 10
727.999049
 20
448.062874
 30
0.0
 10
726.866632
 20
448.062874
 30
0.0
  0
LWPOLYLINE
  5
147
100
AcDbEntity
  8
Layer_1
 62
1
100
AcDbPolyline
 90
1
 70
1
 10
473.083990
 20
348.061752
 30
0.0
  0
SPLINE
  5
148
100
AcDbEntity
  8
Layer_1
 62
1
100
AcDbSpline
 70
8
 71
3
 72
8
 73
4
 74
0
 40
0
 40
0
 40
0
 40
0
 40
1
 40
1
 40
1
 40
1
 10
726.866632
 20
348.062440
 30
0.0
 10
725.734568
 20
348.062440
 30
0.0
 10
724.816640
 20
348.980368
 30
0.0
 10
724.816640
 20
350.112784
 30
0.0
  0
SPLINE
  5
149
100
AcDbEntity
  8
Layer_1
 62
1
100
AcDbSpline
 70
8
 71
3
 72
8
 73
4
 74
0
 40
0
 40
0
 40
0
 40
0
 40
1
 40
1
 40
1
 40
1
 10
724.816640
 20
350.112784
 30
0.0
 10
724.816640
 20
351.245201
 30
0.0
 10
725.734568
 20
352.162776
 30
0.0
 10
726.866632
 20
352.162776
 30
0.0
  0
SPLINE
  5
14a
100
AcDbEntity
  8
Layer_1
 62
1
100
AcDbSpline
 70
8
 71
3
 72
8
 73
4
 74
0
 40
0
 40
0
 40
0
 40
0
 40
1
 40
1
 40
1
 40
1
 10
726.866632
 20
352.162776
 30
0.0
 10
727.999049
 20
352.162776
 30
0.0
 10
728.916976
 20
351.245201
 30
0.0
 10
728.916976
 20
350.112784
 30
0.0
  0
SPLINE
  5
14b
100
AcDbEntity
  8
Layer_1
 62
1
100
AcDbSpline
 70
8
 71
3
 72
8
 73
4
 74
0
 40
0
 40
0
 40
0
 40
0
 40
1
 40
1
 40
1
 40
1
 10
728.916976
 20
350.112784
 30
0.0
 10
728.916976
 20
348.980368
 30
0.0
 10
727.999049
 20
348.062440
 30
0.0
 10
726.866632
 20
348.062440
 30
0.0
  0
LWPOLYLINE
  5
14c
100
AcDbEntity
  8
Layer_1
 62
1
100
AcDbPolyline
 90
1
 70
1
 10
726.866632
 20
448.062874
 30
0.0
  0
SPLINE
  5
14d
100
AcDbEntity
  8
Layer_1
 62
1
100
AcDbSpline
 70
8
 71
3
 72
8
 73
4
 74
0
 40
0
 40
0
 40
0
 40
0
 40
1
 40
1
 40
1
 40
1
 10
716.416411
 20
362.612803
 30
0.0
 10
716.416411
 20
363.744867
 30
0.0
 10
715.498836
 20
364.662442
 30
0.0
 10
714.366772
 20
364.662442
 30
0.0
  0
SPLINE
  5
14e
100
AcDbEntity
  8
Layer_1
 62
1
100
AcDbSpline
 70
8
 71
3
 72
8
 73
4
 74
0
 40
0
 40
0
 40
0
 40
0
 40
1
 40
1
 40
1
 40
1
 10
714.366772
 20
364.662442
 30
0.0
 10
713.234708
 20
364.662442
 30
0.0
 10
712.317133
 20
363.744867
 30
0.0
 10
712.317133
 20
362.612803
 30
0.0
  0
SPLINE
  5
14f
100
AcDbEntity
  8
Layer_1
 62
1
100
AcDbSpline
 70
8
 71
3
 72
8
 73
4
 74
0
 40
0
 40
0
 40
0
 40
0
 40
1
 40
1
 40
1
 40
1
 10
712.317133
 20
362.612803
 30
0.0
 10
712.317133
 20
361.480740
 30
0.0
 10
713.234708
 20
360.563165
 30
0.0
 10
714.366772
 20
360.563165
 30
0.0
  0
SPLINE
  5
150
100
AcDbEntity
  8
Layer_1
 62
1
100
AcDbSpline
 70
8
 71
3
 72
8
 73
4
 74
0
 40
0
 40
0
 40
0
 40
0
 40
1
 40
1
 40
1
 40
1
 10
714.366772
 20
360.563165
 30
0.0
 10
715.498836
 20
360.563165
 30
0.0
 10
716.416411
 20
361.480740
 30
0.0
 10
716.416411
 20
362.612803
 30
0.0
  0
LWPOLYLINE
  5
151
100
AcDbEntity
  8
Layer_1
 62
1
100
AcDbPolyline
 90
1
 70
1
 10
726.866632
 20
348.062440
 30
0.0
  0
SPLINE
  5
152
100
AcDbEntity
  8
Layer_1
 62
1
100
AcDbSpline
 70
8
 71
3
 72
8
 73
4
 74
0
 40
0
 40
0
 40
0
 40
0
 40
1
 40
1
 40
1
 40
1
 10
714.366816
 20
435.562687
 30
0.0
 10
713.234399
 20
435.562687
 30
0.0
 10
712.317177
 20
436.480615
 30
0.0
 10
712.317177
 20
437.612679
 30
0.0
  0
SPLINE
  5
153
100
AcDbEntity
  8
Layer_1
 62
1
100
AcDbSpline
 70
8
 71
3
 72
8
 73
4
 74
0
 40
0
 40
0
 40
0
 40
0
 40
1
 40
1
 40
1
 40
1
 10
712.317177
 20
437.612679
 30
0.0
 10
712.317177
 20
438.745095
 30
0.0
 10
713.234399
 20
439.662318
 30
0.0
 10
714.366816
 20
439.662318
 30
0.0
  0
SPLINE
  5
154
100
AcDbEntity
  8
Layer_1
 62
1
100
AcDbSpline
 70
8
 71
3
 72
8
 73
4
 74
0
 40
0
 40
0
 40
0
 40
0
 40
1
 40
1
 40
1
 40
1
 10
714.366816
 20
439.662318
 30
0.0
 10
715.499232
 20
439.662318
 30
0.0
 10
716.416455
 20
438.745095
 30
0.0
 10
716.416455
 20
437.612679
 30
0.0
  0
SPLINE
  5
155
100
AcDbEntity
  8
Layer_1
 62
1
100
AcDbSpline
 70
8
 71
3
 72
8
 73
4
 74
0
 40
0
 40
0
 40
0
 40
0
 40
1
 40
1
 40
1
 40
1
 10
716.416455
 20
437.612679
 30
0.0
 10
716.416455
 20
436.480615
 30
0.0
 10
715.499232
 20
435.562687
 30
0.0
 10
714.366816
 20
435.562687
 30
0.0
  0
LWPOLYLINE
  5
156
100
AcDbEntity
  8
Layer_1
 62
1
100
AcDbPolyline
 90
1
 70
1
 10
716.416411
 20
362.612803
 30
0.0
  0
SPLINE
  5
157
100
AcDbEntity
  8
Layer_1
 62
1
100
AcDbSpline
 70
8
 71
3
 72
8
 73
4
 74
0
 40
0
 40
0
 40
0
 40
0
 40
1
 40
1
 40
1
 40
1
 10
639.366755
 20
360.562997
 30
0.0
 10
638.234691
 20
360.562997
 30
0.0
 10
637.316763
 20
361.480219
 30
0.0
 10
637.316763
 20
362.612636
 30
0.0
  0
SPLINE
  5
158
100
AcDbEntity
  8
Layer_1
 62
1
100
AcDbSpline
 70
8
 71
3
 72
8
 73
4
 74
0
 40
0
 40
0
 40
0
 40
0
 40
1
 40
1
 40
1
 40
1
 10
637.316763
 20
362.612636
 30
0.0
 10
637.316763
 20
363.744700
 30
0.0
 10
638.234691
 20
364.662627
 30
0.0
 10
639.366755
 20
364.662627
 30
0.0
  0
SPLINE
  5
159
100
AcDbEntity
  8
Layer_1
 62
1
100
AcDbSpline
 70
8
 71
3
 72
8
 73
4
 74
0
 40
0
 40
0
 40
0
 40
0
 40
1
 40
1
 40
1
 40
1
 10
639.366755
 20
364.662627
 30
0.0
 10
640.498819
 20
364.662627
 30
0.0
 10
641.416394
 20
363.744700
 30
0.0
 10
641.416394
 20
362.612636
 30
0.0
  0
SPLINE
  5
15a
100
AcDbEntity
  8
Layer_1
 62
1
100
AcDbSpline
 70
8
 71
3
 72
8
 73
4
 74
0
 40
0
 40
0
 40
0
 40
0
 40
1
 40
1
 40
1
 40
1
 10
641.416394
 20
362.612636
 30
0.0
 10
641.416394
 20
361.480219
 30
0.0
 10
640.498819
 20
360.562997
 30
0.0
 10
639.366755
 20
360.562997
 30
0.0
  0
LWPOLYLINE
  5
15b
100
AcDbEntity
  8
Layer_1
 62
1
100
AcDbPolyline
 90
1
 70
1
 10
714.366816
 20
435.562687
 30
0.0
  0
SPLINE
  5
15c
100
AcDbEntity
  8
Layer_1
 62
1
100
AcDbSpline
 70
8
 71
3
 72
8
 73
4
 74
0
 40
0
 40
0
 40
0
 40
0
 40
1
 40
1
 40
1
 40
1
 10
639.366755
 20
435.562687
 30
0.0
 10
638.234691
 20
435.562687
 30
0.0
 10
637.316763
 20
436.480615
 30
0.0
 10
637.316763
 20
437.612679
 30
0.0
  0
SPLINE
  5
15d
100
AcDbEntity
  8
Layer_1
 62
1
100
AcDbSpline
 70
8
 71
3
 72
8
 73
4
 74
0
 40
0
 40
0
 40
0
 40
0
 40
1
 40
1
 40
1
 40
1
 10
637.316763
 20
437.612679
 30
0.0
 10
637.316763
 20
438.745095
 30
0.0
 10
638.234691
 20
439.662318
 30
0.0
 10
639.366755
 20
439.662318
 30
0.0
  0
SPLINE
  5
15e
100
AcDbEntity
  8
Layer_1
 62
1
100
AcDbSpline
 70
8
 71
3
 72
8
 73
4
 74
0
 40
0
 40
0
 40
0
 40
0
 40
1
 40
1
 40
1
 40
1
 10
639.366755
 20
439.662318
 30
0.0
 10
640.498819
 20
439.662318
 30
0.0
 10
641.416394
 20
438.745095
 30
0.0
 10
641.416394
 20
437.612679
 30
0.0
  0
SPLINE
  5
15f
100
AcDbEntity
  8
Layer_1
 62
1
100
AcDbSpline
 70
8
 71
3
 72
8
 73
4
 74
0
 40
0
 40
0
 40
0
 40
0
 40
1
 40
1
 40
1
 40
1
 10
641.416394
 20
437.612679
 30
0.0
 10
641.416394
 20
436.480615
 30
0.0
 10
640.498819
 20
435.562687
 30
0.0
 10
639.366755
 20
435.562687
 30
0.0
  0
LWPOLYLINE
  5
160
100
AcDbEntity
  8
Layer_1
 62
1
100
AcDbPolyline
 90
1
 70
1
 10
639.366755
 20
360.562997
 30
0.0
  0
SPLINE
  5
161
100
AcDbEntity
  8
Layer_1
 62
1
100
AcDbSpline
 70
8
 71
3
 72
8
 73
4
 74
0
 40
0
 40
0
 40
0
 40
0
 40
1
 40
1
 40
1
 40
1
 10
701.866973
 20
373.062469
 30
0.0
 10
700.734557
 20
373.062469
 30
0.0
 10
699.816982
 20
373.980397
 30
0.0
 10
699.816982
 20
375.112461
 30
0.0
  0
SPLINE
  5
162
100
AcDbEntity
  8
Layer_1
 62
1
100
AcDbSpline
 70
8
 71
3
 72
8
 73
4
 74
0
 40
0
 40
0
 40
0
 40
0
 40
1
 40
1
 40
1
 40
1
 10
699.816982
 20
375.112461
 30
0.0
 10
699.816982
 20
376.244877
 30
0.0
 10
700.734557
 20
377.162099
 30
0.0
 10
701.866973
 20
377.162099
 30
0.0
  0
SPLINE
  5
163
100
AcDbEntity
  8
Layer_1
 62
1
100
AcDbSpline
 70
8
 71
3
 72
8
 73
4
 74
0
 40
0
 40
0
 40
0
 40
0
 40
1
 40
1
 40
1
 40
1
 10
701.866973
 20
377.162099
 30
0.0
 10
702.999037
 20
377.162099
 30
0.0
 10
703.916612
 20
376.244877
 30
0.0
 10
703.916612
 20
375.112461
 30
0.0
  0
SPLINE
  5
164
100
AcDbEntity
  8
Layer_1
 62
1
100
AcDbSpline
 70
8
 71
3
 72
8
 73
4
 74
0
 40
0
 40
0
 40
0
 40
0
 40
1
 40
1
 40
1
 40
1
 10
703.916612
 20
375.112461
 30
0.0
 10
703.916612
 20
373.980397
 30
0.0
 10
702.999037
 20
373.062469
 30
0.0
 10
701.866973
 20
373.062469
 30
0.0
  0
LWPOLYLINE
  5
165
100
AcDbEntity
  8
Layer_1
 62
1
100
AcDbPolyline
 90
1
 70
1
 10
639.366755
 20
435.562687
 30
0.0
  0
SPLINE
  5
166
100
AcDbEntity
  8
Layer_1
 62
1
100
AcDbSpline
 70
8
 71
3
 72
8
 73
4
 74
0
 40
0
 40
0
 40
0
 40
0
 40
1
 40
1
 40
1
 40
1
 10
701.640252
 20
423.062501
 30
0.0
 10
700.508188
 20
423.062501
 30
0.0
 10
699.590613
 20
423.980429
 30
0.0
 10
699.590613
 20
425.112492
 30
0.0
  0
SPLINE
  5
167
100
AcDbEntity
  8
Layer_1
 62
1
100
AcDbSpline
 70
8
 71
3
 72
8
 73
4
 74
0
 40
0
 40
0
 40
0
 40
0
 40
1
 40
1
 40
1
 40
1
 10
699.590613
 20
425.112492
 30
0.0
 10
699.590613
 20
426.244909
 30
0.0
 10
700.508188
 20
427.162131
 30
0.0
 10
701.640252
 20
427.162131
 30
0.0
  0
SPLINE
  5
168
100
AcDbEntity
  8
Layer_1
 62
1
100
AcDbSpline
 70
8
 71
3
 72
8
 73
4
 74
0
 40
0
 40
0
 40
0
 40
0
 40
1
 40
1
 40
1
 40
1
 10
701.640252
 20
427.162131
 30
0.0
 10
702.772316
 20
427.162131
 30
0.0
 10
703.690243
 20
426.244909
 30
0.0
 10
703.690243
 20
425.112492
 30
0.0
  0
SPLINE
  5
169
100
AcDbEntity
  8
Layer_1
 62
1
100
AcDbSpline
 70
8
 71
3
 72
8
 73
4
 74
0
 40
0
 40
0
 40
0
 40
0
 40
1
 40
1
 40
1
 40
1
 10
703.690243
 20
425.112492
 30
0.0
 10
703.690243
 20
423.980429
 30
0.0
 10
702.772316
 20
423.062501
 30
0.0
 10
701.640252
 20
423.062501
 30
0.0
  0
LWPOLYLINE
  5
16a
100
AcDbEntity
  8
Layer_1
 62
1
100
AcDbPolyline
 90
1
 70
1
 10
701.866973
 20
373.062469
 30
0.0
  0
SPLINE
  5
16b
100
AcDbEntity
  8
Layer_1
 62
1
100
AcDbSpline
 70
8
 71
3
 72
8
 73
4
 74
0
 40
0
 40
0
 40
0
 40
0
 40
1
 40
1
 40
1
 40
1
 10
651.866942
 20
373.062469
 30
0.0
 10
650.734525
 20
373.062469
 30
0.0
 10
649.816950
 20
373.980397
 30
0.0
 10
649.816950
 20
375.112461
 30
0.0
  0
SPLINE
  5
16c
100
AcDbEntity
  8
Layer_1
 62
1
100
AcDbSpline
 70
8
 71
3
 72
8
 73
4
 74
0
 40
0
 40
0
 40
0
 40
0
 40
1
 40
1
 40
1
 40
1
 10
649.816950
 20
375.112461
 30
0.0
 10
649.816950
 20
376.244877
 30
0.0
 10
650.734525
 20
377.162099
 30
0.0
 10
651.866942
 20
377.162099
 30
0.0
  0
SPLINE
  5
16d
100
AcDbEntity
  8
Layer_1
 62
1
100
AcDbSpline
 70
8
 71
3
 72
8
 73
4
 74
0
 40
0
 40
0
 40
0
 40
0
 40
1
 40
1
 40
1
 40
1
 10
651.866942
 20
377.162099
 30
0.0
 10
652.999005
 20
377.162099
 30
0.0
 10
653.916580
 20
376.244877
 30
0.0
 10
653.916580
 20
375.112461
 30
0.0
  0
SPLINE
  5
16e
100
AcDbEntity
  8
Layer_1
 62
1
100
AcDbSpline
 70
8
 71
3
 72
8
 73
4
 74
0
 40
0
 40
0
 40
0
 40
0
 40
1
 40
1
 40
1
 40
1
 10
653.916580
 20
375.112461
 30
0.0
 10
653.916580
 20
373.980397
 30
0.0
 10
652.999005
 20
373.062469
 30
0.0
 10
651.866942
 20
373.062469
 30
0.0
  0
LWPOLYLINE
  5
16f
100
AcDbEntity
  8
Layer_1
 62
1
100
AcDbPolyline
 90
1
 70
1
 10
701.640252
 20
423.062501
 30
0.0
  0
SPLINE
  5
170
100
AcDbEntity
  8
Layer_1
 62
1
100
AcDbSpline
 70
8
 71
3
 72
8
 73
4
 74
0
 40
0
 40
0
 40
0
 40
0
 40
1
 40
1
 40
1
 40
1
 10
651.640247
 20
423.062501
 30
0.0
 10
650.508183
 20
423.062501
 30
0.0
 10
649.590255
 20
423.980429
 30
0.0
 10
649.590255
 20
425.112492
 30
0.0
  0
SPLINE
  5
171
100
AcDbEntity
  8
Layer_1
 62
1
100
AcDbSpline
 70
8
 71
3
 72
8
 73
4
 74
0
 40
0
 40
0
 40
0
 40
0
 40
1
 40
1
 40
1
 40
1
 10
649.590255
 20
425.112492
 30
0.0
 10
649.590255
 20
426.244909
 30
0.0
 10
650.508183
 20
427.162131
 30
0.0
 10
651.640247
 20
427.162131
 30
0.0
  0
SPLINE
  5
172
100
AcDbEntity
  8
Layer_1
 62
1
100
AcDbSpline
 70
8
 71
3
 72
8
 73
4
 74
0
 40
0
 40
0
 40
0
 40
0
 40
1
 40
1
 40
1
 40
1
 10
651.640247
 20
427.162131
 30
0.0
 10
652.772310
 20
427.162131
 30
0.0
 10
653.689885
 20
426.244909
 30
0.0
 10
653.689885
 20
425.112492
 30
0.0
  0
SPLINE
  5
173
100
AcDbEntity
  8
Layer_1
 62
1
100
AcDbSpline
 70
8
 71
3
 72
8
 73
4
 74
0
 40
0
 40
0
 40
0
 40
0
 40
1
 40
1
 40
1
 40
1
 10
653.689885
 20
425.112492
 30
0.0
 10
653.689885
 20
423.980429
 30
0.0
 10
652.772310
 20
423.062501
 30
0.0
 10
651.640247
 20
423.062501
 30
0.0
  0
LWPOLYLINE
  5
174
100
AcDbEntity
  8
Layer_1
 62
1
100
AcDbPolyline
 90
1
 70
1
 10
651.866942
 20
373.062469
 30
0.0
  0
SPLINE
  5
175
100
AcDbEntity
  8
Layer_1
 62
1
100
AcDbSpline
 70
8
 71
3
 72
8
 73
4
 74
0
 40
0
 40
0
 40
0
 40
0
 40
1
 40
1
 40
1
 40
1
 10
606.100164
 20
337.613092
 30
0.0
 10
603.762306
 20
337.613092
 30
0.0
 10
601.866831
 20
339.192478
 30
0.0
 10
601.866831
 20
341.141222
 30
0.0
  0
LWPOLYLINE
  5
176
100
AcDbEntity
  8
Layer_1
 62
1
100
AcDbPolyline
 90
1
 70
1
 10
651.640247
 20
423.062501
 30
0.0
  0
SPLINE
  5
177
100
AcDbEntity
  8
Layer_1
 62
1
100
AcDbSpline
 70
8
 71
3
 72
8
 73
4
 74
0
 40
0
 40
0
 40
0
 40
0
 40
1
 40
1
 40
1
 40
1
 10
601.866831
 20
459.084707
 30
0.0
 10
601.866831
 20
461.033098
 30
0.0
 10
603.762306
 20
462.612837
 30
0.0
 10
606.100164
 20
462.612837
 30
0.0
  0
LWPOLYLINE
  5
178
100
AcDbEntity
  8
Layer_1
 62
1
100
AcDbPolyline
 90
2
 70
0
 10
601.866831
 20
341.141222
 30
0.0
 10
601.866831
 20
459.084707
 30
0.0
  0
SPLINE
  5
179
100
AcDbEntity
  8
Layer_1
 62
1
100
AcDbSpline
 70
8
 71
3
 72
8
 73
4
 74
0
 40
0
 40
0
 40
0
 40
0
 40
1
 40
1
 40
1
 40
1
 10
747.633545
 20
462.612132
 30
0.0
 10
749.971403
 20
462.612132
 30
0.0
 10
751.866878
 20
461.033098
 30
0.0
 10
751.866878
 20
459.084707
 30
0.0
  0
LWPOLYLINE
  5
17a
100
AcDbEntity
  8
Layer_1
 62
1
100
AcDbPolyline
 90
2
 70
0
 10
606.100164
 20
462.612837
 30
0.0
 10
747.633545
 20
462.612132
 30
0.0
  0
SPLINE
  5
17b
100
AcDbEntity
  8
Layer_1
 62
1
100
AcDbSpline
 70
8
 71
3
 72
8
 73
4
 74
0
 40
0
 40
0
 40
0
 40
0
 40
1
 40
1
 40
1
 40
1
 10
751.866525
 20
341.140517
 30
0.0
 10
751.866525
 20
339.192478
 30
0.0
 10
749.971403
 20
337.612739
 30
0.0
 10
747.633192
 20
337.612739
 30
0.0
  0
LWPOLYLINE
  5
17c
100
AcDbEntity
  8
Layer_1
 62
1
100
AcDbPolyline
 90
2
 70
0
 10
751.866878
 20
459.084707
 30
0.0
 10
751.866525
 20
341.140517
 30
0.0
  0
SPLINE
  5
17d
100
AcDbEntity
  8
Layer_1
 62
1
100
AcDbSpline
 70
8
 71
3
 72
8
 73
4
 74
0
 40
0
 40
0
 40
0
 40
0
 40
1
 40
1
 40
1
 40
1
 10
626.866833
 20
448.062186
 30
0.0
 10
625.735122
 20
448.062186
 30
0.0
 10
624.817547
 20
448.979408
 30
0.0
 10
624.817547
 20
450.112177
 30
0.0
  0
SPLINE
  5
17e
100
AcDbEntity
  8
Layer_1
 62
1
100
AcDbSpline
 70
8
 71
3
 72
8
 73
4
 74
0
 40
0
 40
0
 40
0
 40
0
 40
1
 40
1
 40
1
 40
1
 10
624.817547
 20
450.112177
 30
0.0
 10
624.817547
 20
451.244241
 30
0.0
 10
625.735122
 20
452.161816
 30
0.0
 10
626.866833
 20
452.161816
 30
0.0
  0
SPLINE
  5
17f
100
AcDbEntity
  8
Layer_1
 62
1
100
AcDbSpline
 70
8
 71
3
 72
8
 73
4
 74
0
 40
0
 40
0
 40
0
 40
0
 40
1
 40
1
 40
1
 40
1
 10
626.866833
 20
452.161816
 30
0.0
 10
627.999250
 20
452.161816
 30
0.0
 10
628.917177
 20
451.244241
 30
0.0
 10
628.917177
 20
450.112177
 30
0.0
  0
SPLINE
  5
180
100
AcDbEntity
  8
Layer_1
 62
1
100
AcDbSpline
 70
8
 71
3
 72
8
 73
4
 74
0
 40
0
 40
0
 40
0
 40
0
 40
1
 40
1
 40
1
 40
1
 10
628.917177
 20
450.112177
 30
0.0
 10
628.917177
 20
448.979408
 30
0.0
 10
627.999250
 20
448.062186
 30
0.0
 10
626.866833
 20
448.062186
 30
0.0
  0
LWPOLYLINE
  5
181
100
AcDbEntity
  8
Layer_1
 62
1
100
AcDbPolyline
 90
2
 70
0
 10
747.633192
 20
337.612739
 30
0.0
 10
606.100164
 20
337.613092
 30
0.0
  0
SPLINE
  5
182
100
AcDbEntity
  8
Layer_1
 62
1
100
AcDbSpline
 70
8
 71
3
 72
8
 73
4
 74
0
 40
0
 40
0
 40
0
 40
0
 40
1
 40
1
 40
1
 40
1
 10
626.866833
 20
348.061752
 30
0.0
 10
625.734769
 20
348.061752
 30
0.0
 10
624.816842
 20
348.980033
 30
0.0
 10
624.816842
 20
350.112096
 30
0.0
  0
SPLINE
  5
183
100
AcDbEntity
  8
Layer_1
 62
1
100
AcDbSpline
 70
8
 71
3
 72
8
 73
4
 74
0
 40
0
 40
0
 40
0
 40
0
 40
1
 40
1
 40
1
 40
1
 10
624.816842
 20
350.112096
 30
0.0
 10
624.816842
 20
351.244866
 30
0.0
 10
625.734769
 20
352.162088
 30
0.0
 10
626.866833
 20
352.162088
 30
0.0
  0
SPLINE
  5
184
100
AcDbEntity
  8
Layer_1
 62
1
100
AcDbSpline
 70
8
 71
3
 72
8
 73
4
 74
0
 40
0
 40
0
 40
0
 40
0
 40
1
 40
1
 40
1
 40
1
 10
626.866833
 20
352.162088
 30
0.0
 10
627.999250
 20
352.162088
 30
0.0
 10
628.917177
 20
351.244866
 30
0.0
 10
628.917177
 20
350.112096
 30
0.0
  0
SPLINE
  5
185
100
AcDbEntity
  8
Layer_1
 62
1
100
AcDbSpline
 70
8
 71
3
 72
8
 73
4
 74
0
 40
0
 40
0
 40
0
 40
0
 40
1
 40
1
 40
1
 40
1
 10
628.917177
 20
350.112096
 30
0.0
 10
628.917177
 20
348.980033
 30
0.0
 10
627.999250
 20
348.061752
 30
0.0
 10
626.866833
 20
348.061752
 30
0.0
  0
LWPOLYLINE
  5
186
100
AcDbEntity
  8
Layer_1
 62
1
100
AcDbPolyline
 90
1
 70
1
 10
626.866833
 20
448.062186
 30
0.0
  0
LWPOLYLINE
  5
187
100
AcDbEntity
  8
Layer_1
 62
1
100
AcDbPolyline
 90
1
 70
1
 10
626.866833
 20
348.061752
 30
0.0
  0
ENDSEC
  0
SECTION
  2
OBJECTS
  0
DICTIONARY
  5
C
330
0
100
AcDbDictionary
  3
ACAD_GROUP
350
D
  3
ACAD_MLINESTYLE
350
17
  0
DICTIONARY
  5
D
330
C
100
AcDbDictionary
  0
DICTIONARY
  5
1A
330
C
100
AcDbDictionary
  0
DICTIONARY
  5
17
330
C
100
AcDbDictionary
  3
STANDARD
350
18
  0
DICTIONARY
  5
19
330
C
100
AcDbDictionary
  0
ENDSEC
  0
EOF
